<svg width="1866" height="2299" viewBox="0 0 1866 2299" fill="none" xmlns="http://www.w3.org/2000/svg">
<path d="M1673.21 265.536C1646.3 300.935 1620.39 335.054 1594.38 369.093C1592.39 371.693 1587.39 374.333 1587.78 376.04C1594.6 405.706 1574.08 421.705 1555.6 436.878C1537.7 451.584 1535.2 479.157 1507.93 486.917C1495.85 490.357 1486.19 506.13 1477.81 517.97C1458.95 544.556 1445.45 576.101 1422.67 598.407C1391.69 628.78 1385.1 665.726 1378.44 704.365C1374.5 727.151 1367.4 729.898 1343.69 718.964C1340.98 717.711 1337.18 718.791 1334.22 718.791C1301.94 793.403 1296.52 873.147 1287.98 950.319C1271.85 960.558 1255.97 969.998 1240.92 980.625C1236.11 984.025 1229.64 991.424 1230.55 995.531C1235.25 1016.69 1219.76 1027.29 1210.8 1042.32C1197.35 1064.92 1185.81 1089.3 1189.81 1117.87C1191.03 1126.59 1185.32 1136.07 1185.21 1145.23C1185.11 1153.13 1189.76 1161.06 1189.84 1168.99C1189.89 1174.65 1186.47 1180.69 1183.52 1185.97C1174.51 1202.07 1161.24 1216.86 1156.55 1234.06C1149.69 1259.14 1133.48 1277.6 1120.52 1298.4C1103.84 1325.18 1089.56 1351.2 1090.1 1385.28C1090.51 1411.03 1075.64 1437.08 1076.36 1462.75C1077.62 1507.34 1040.18 1538.9 1041.24 1582.49C1041.36 1587.64 1035.44 1593.18 1031.74 1598.12C1023.34 1609.26 1016.02 1621.85 1005.6 1630.72C991.832 1642.45 1021.35 1656.29 1002.09 1665.86C1005.27 1680.75 999.672 1688.17 984.752 1693.33C978.619 1695.45 974.419 1708.43 972.859 1717.11C970.846 1728.3 972.046 1740.13 972.459 1751.66C972.926 1764.95 970.339 1775.3 960.593 1786.66C938.113 1812.87 936.073 1848.76 923.514 1879.87C916.666 1896.81 910.91 1914.89 912.115 1934.92C913.01 1949.8 908.749 1966.24 902.394 1979.96C895.286 1995.29 879.32 2007.12 874.453 2022.73C869.864 2037.45 875.136 2054.76 858.917 2066.22C855.009 2068.98 853.737 2077.56 853.757 2083.45C853.861 2113.7 842.642 2141.18 835.926 2169.86C829.256 2198.34 825.941 2227.91 816.998 2256.33C813.308 2268.05 813.026 2280.85 810.371 2298.67C803.146 2286.51 794.958 2279.01 794.696 2271.23C793.362 2231.69 792.717 2192.02 794.624 2152.52C795.665 2130.97 798.254 2107.76 807.438 2088.84C816.928 2069.28 810.947 2050.74 813.891 2032.05C793.169 2019.93 809.288 2007.56 814.099 1995.8C817.876 1986.57 818.348 1979.95 815.07 1968.93C805.731 1937.57 825.625 1911.72 840.692 1886.48C846.424 1876.88 855.733 1870.31 853.647 1857.02C844.534 1798.94 873.676 1750.78 896.44 1701.66C923.604 1643.05 950.26 1584.22 941.873 1518C937.313 1481.91 956.806 1454.36 967.033 1424C975.726 1398.2 983.232 1373.65 982.526 1346.27C981.592 1310 1004.9 1236.04 1017.02 1192.59C1032.42 1137.39 1063.68 1089.81 1082.35 1036.34C1094.32 1002.06 1116.4 971.372 1133.51 938.826C1139.88 926.706 1146.4 914.333 1150.37 901.32C1160.01 869.747 1171.92 839.548 1196.72 816.669C1211.16 803.336 1220.85 788.536 1224.85 768.79C1233.75 724.884 1264.09 692.472 1287.2 656.059C1311.96 617.047 1347.45 588.354 1378.46 555.355C1385.14 548.262 1398.42 539.489 1397.18 534.129C1389.68 501.45 1419.95 496.13 1434.31 480.624C1464.71 447.798 1489.83 410.799 1518.77 377.24C1560.12 329.294 1603.59 281.042 1668.87 263.296C1669.94 263.003 1671.52 264.629 1673.21 265.536M4.76993 1749.95C-5.98313 1694.54 6.86986 1645.22 29.3453 1597.36C37.4158 1580.17 43.5143 1562.73 41.6463 1542.86C40.3157 1528.72 38.3197 1514.12 53.3487 1502.8C59.1619 1498.42 61.3672 1485.49 60.6192 1476.85C58.1899 1448.83 68.891 1427.04 89.0131 1409.2C105.981 1394.16 124.2 1377.43 129.036 1356.64C134.419 1333.51 167.409 1328.82 161.271 1299.71C160.106 1294.18 172.714 1284.84 180.07 1278.56C219.794 1244.62 232.986 1198.51 239.011 1149.49C240.403 1138.15 241.531 1128.79 248.749 1118.58C266.587 1093.36 274.665 1060.97 299.437 1041.05C317.514 1026.5 298.228 1001.01 318.639 989.224C321.867 929.026 357.918 883.427 386.015 833.815C411.598 788.643 447.999 751.617 475.57 707.898C483.711 694.992 483.503 681.205 491.414 669.526C506.415 647.353 523.082 625.033 547.474 615.34C567.924 607.221 574.826 591.368 584.762 576.181C587.159 572.515 585.79 565.235 588.673 563.222C624.485 538.209 636.13 489.97 678.114 470.637C683.572 468.131 685.898 458.518 689.359 452.024C698.223 435.398 706.764 419.745 725.973 410.972C737.937 405.506 744.353 390.786 744.266 376.693C744.141 356.093 749.343 344.48 773.288 341.281C789.133 339.147 804.381 328.521 816.864 315.268C843.133 287.402 869.322 259.296 905.411 242.643C913.679 238.83 917.96 226.217 923.882 217.51C934.967 201.217 945.966 186.271 968.499 183.404C987.485 180.991 1002.23 168.791 1016.32 155.405C1040.79 132.152 1064.26 105.766 1093.18 89.82C1130.31 69.3272 1166.85 45.7545 1209.08 35.2748C1221.97 32.0882 1232.85 17.2487 1246.55 27.1018C1209.75 62.7409 1176.23 102.74 1135.24 132.419C1105.19 154.205 1075.67 177.525 1043.86 197.391C1008.87 219.23 975.539 243.963 946.913 274.149C944.086 277.135 945.366 284.269 942.433 286.882C924.35 302.988 893.11 300.948 889.706 338.494C887.739 360.187 864.086 380.053 849.773 400.452C843.902 408.812 836.202 413.705 824.777 411.932C807.731 409.279 799.639 417.919 793.516 434.065C783.265 461.117 769.645 486.904 757.036 513.023C751.726 524.023 760.568 544.755 736.722 543.382C732.729 556.595 727.309 569.581 725.103 583.088C722.26 600.461 718.759 614.554 699.149 621.914C691.066 624.94 687.802 628.767 680.736 621.367C679.061 619.607 665.871 625.14 666.005 625.913C670.387 650.953 648.918 659.833 636.094 673.219C615.107 695.125 599.662 719.791 590.865 748.71C589.074 754.59 584.498 762.23 586.591 766.27C599.519 791.176 583.151 804.976 568.729 820.535C534.558 857.388 500.924 894.733 467.078 931.892C463.808 935.479 457.719 939.119 457.747 942.692C458.047 980.971 421.732 1003.48 416.257 1039.98C414.965 1048.6 415.76 1054.2 416.146 1061.78C416.737 1073.42 413.164 1090.62 397.78 1094.71C380.481 1099.33 374.718 1114.69 373.063 1126.25C369.451 1151.47 352.1 1164.82 336.99 1180.98C328.443 1190.11 319.573 1197.45 317.138 1212.71C315.307 1224.19 301.568 1238.66 289.984 1242.64C268.689 1249.95 267.666 1263.99 269.282 1280.71C271.769 1306.47 262.507 1323.58 237.692 1333.51C230.196 1336.51 224.158 1345.83 219.822 1353.59C198.128 1392.4 176.926 1431.49 156.213 1470.84C149.848 1482.93 146.209 1496.44 140.203 1508.74C130.808 1528.01 124.482 1551.16 109.643 1564.85C82.424 1589.94 72.4629 1621.73 60.8392 1654.18C48.4621 1688.73 35.9092 1723.67 4.76993 1749.95M1865.69 358.307C1856.94 372.693 1849.84 388.466 1839.01 401.052C1827.45 414.492 1819.4 428.732 1814.01 445.358C1811.22 453.944 1807.4 464.344 1800.65 469.144C1769.37 491.37 1757.21 527.649 1736.56 557.155C1725.44 573.035 1698.84 575.221 1700.16 600.167C1677.87 615.127 1672.11 641.313 1658.3 662.019C1654.08 668.339 1652.91 677.899 1647.39 681.925C1627.71 696.285 1625.34 715.151 1625.3 737.711C1625.27 755.924 1618.04 774.11 1613.19 796.016C1604.18 796.949 1591.84 798.216 1579.82 799.456C1575.28 809.762 1568.74 819.149 1567.03 829.348C1556.02 895.387 1541.62 961.172 1547.78 1031.08C1535.54 1036.34 1522.87 1040.94 1511.1 1047.22C1505.61 1050.16 1498.21 1056.16 1497.94 1061.12C1496.17 1093.13 1464.18 1114.26 1467.62 1147.73C1450.47 1165.53 1460.39 1187.77 1457.71 1207.95C1477.57 1220.06 1464.49 1233.32 1457.37 1244.04C1439.73 1270.6 1437.33 1301.84 1428.01 1330.92C1423.81 1344.02 1423.07 1360.11 1414.81 1369.71C1384.86 1404.49 1377 1444.63 1378.36 1488.52C1380.14 1545.85 1360.77 1598.2 1343.66 1652.06C1329.29 1697.33 1301.44 1736.98 1294.9 1785.9C1292 1807.68 1284.48 1831.67 1281.37 1853.48C1276.05 1890.83 1258.45 1925.21 1258.29 1963.2C1244.37 1972.57 1249.99 1986.91 1249.95 1999.23C1249.84 2037.61 1241.17 2072.33 1220.95 2106.22C1203.17 2135.98 1182.55 2165.75 1177.4 2201.95C1177.19 2203.45 1169.16 2203.82 1159.79 2205.71C1165.45 2182.3 1154.97 2162.49 1168.68 2139.01C1178.03 2123.02 1168.93 2097.04 1170.87 2075.77C1173.17 2050.68 1161.16 2023.89 1179.91 2000.29C1183.01 1996.39 1182.67 1985.33 1179.36 1981.48C1158.57 1957.24 1172.92 1935.24 1186.65 1917.85C1196.4 1905.52 1199 1893 1203.12 1879.75C1207.64 1865.15 1213.11 1850.79 1216.87 1836C1220.64 1821.1 1235.08 1809.46 1230.07 1791.84C1229.27 1789.03 1229.51 1783.82 1231.2 1782.72C1259.73 1764.44 1247.71 1735.81 1249.47 1711.02C1250.75 1692.97 1249.52 1674.75 1249.76 1656.61C1250.03 1636.07 1250.49 1616.42 1258.81 1596.06C1274.36 1558.08 1284.17 1517.68 1279.17 1475.99C1272.93 1423.97 1292.29 1376.01 1301.49 1326.6C1306.73 1298.39 1319.97 1271.71 1328.84 1244.1C1337.7 1216.47 1354.76 1191.86 1358.66 1162.45C1389.7 1133.63 1381.34 1084.97 1412.3 1055.84C1416.18 1052.18 1418.57 1044.12 1417.73 1038.68C1411.17 995.651 1439.29 967.718 1462.07 938.292C1471.45 926.186 1477.74 916.013 1478.29 900C1478.86 883.387 1482.15 865.134 1490.09 850.828C1514.01 807.722 1539.91 765.63 1566.7 724.218C1583.72 697.912 1602.4 672.379 1622.94 648.753C1632.36 637.913 1631.95 624.927 1637.48 615.114C1652.82 587.981 1671.69 562.168 1692.75 539.089C1727.27 501.263 1759.17 461.558 1790.81 421.372C1810.69 396.119 1836.01 375.16 1858.89 352.28C1861.16 354.294 1863.42 356.294 1865.69 358.307ZM502.467 1276.31C500.911 1291.67 496.784 1302.18 492.032 1312.15C487.405 1322.19 482.182 1331.74 478.361 1345.02L455.312 1350.86C451.564 1365.48 453.652 1370.07 456.597 1373.96C459.527 1377.83 463.272 1380.97 463.044 1392.68C452.169 1402.43 443.054 1421.28 436.135 1439.15C429.342 1457.08 424.507 1473.93 421.526 1479.57C410.212 1484.25 415.396 1464.8 412.488 1458.75C408.22 1475.84 410.328 1485.56 411.338 1495.92C412.433 1506.3 412.514 1517.36 404.156 1537.08L399.325 1535.8C390.912 1587.92 373.795 1643.35 355.597 1699.86C351.181 1714.02 346.74 1728.26 342.296 1742.51C337.86 1756.77 333.39 1770.99 329.458 1785.32C325.435 1799.62 321.579 1813.88 318.022 1828.07C317.15 1831.62 316.281 1835.16 315.413 1838.7C314.586 1842.23 313.832 1845.79 313.072 1849.32C311.565 1856.4 310.148 1863.46 308.838 1870.48C312.21 1863.54 315.201 1866.6 319.614 1864.99C315.53 1879.32 311.369 1893.94 307.161 1908.71C302.989 1923.48 299.051 1938.51 295.044 1953.53C293.087 1961.07 291.127 1968.61 289.167 1976.15C288.215 1979.92 287.223 1983.69 286.331 1987.48C285.456 1991.28 284.583 1995.07 283.711 1998.85C280.267 2014.01 277.034 2029.15 274.135 2044.17C271.137 2059.16 268.915 2074.16 267.021 2088.9C265.146 2103.66 263.727 2118.2 262.893 2132.41C261.537 2160.94 262.687 2188.26 267.022 2213.47C273.118 2182.14 289.815 2142.21 304.454 2101.72C308.054 2091.57 311.412 2081.36 314.408 2071.18C317.527 2061.06 320.218 2050.98 322.257 2041.04C324.294 2031.09 325.678 2021.29 326.187 2011.73C326.446 2006.95 326.467 2002.21 326.275 1997.57C326.13 1992.95 325.735 1988.39 325.066 1983.91C334.932 1974.41 338.23 1959.47 341.643 1946.35C343.348 1939.8 345.081 1933.72 347.671 1929.05C350.304 1924.39 353.835 1921.16 358.989 1920.25C368.34 1899 374.177 1880.2 378.133 1862.59C382.326 1845.07 384.654 1828.74 386.683 1812.38C387.714 1804.19 388.619 1795.99 389.762 1787.67C390.963 1779.38 392.303 1770.94 393.984 1762.19C395.665 1753.45 397.689 1744.41 400.26 1734.91C401.545 1730.18 402.968 1725.33 404.552 1720.35C406.199 1715.39 408.032 1710.33 410.042 1705.11C417.81 1694.38 423.871 1703.43 433.233 1703.13L428.802 1720.34L426.597 1728.94L424.511 1737.58L416.188 1772.11L438.072 1734.51C439.14 1754.77 417.74 1794.98 431.315 1805.42C432.926 1773.42 445.659 1735.57 458.741 1698.94C461.951 1689.75 465.113 1680.61 468.038 1671.61C471.06 1662.63 473.905 1653.83 476.283 1645.25C481.087 1628.09 484.025 1611.78 483.954 1597.17C477.101 1608 471.969 1621.25 466.793 1635.1C461.698 1648.98 456.472 1663.43 450.425 1677.11C440.219 1687.19 428.766 1704.62 421.045 1700.18C424.714 1655.5 436.82 1617.77 451.141 1580.73C458.485 1562.28 466.364 1543.97 474.128 1524.98C482.171 1506.12 490.112 1486.6 497.328 1465.53C504.757 1444.51 518.86 1417.79 528.157 1418.13C524.768 1432.61 535.847 1425.69 534.611 1438.27C537.853 1422.53 531.089 1418.47 526.286 1413.4C521.498 1408.35 518.565 1402.2 530.066 1382.48L554.77 1400.73C544.294 1385.77 551.598 1373.85 561.133 1361.12C563.517 1357.94 566.043 1354.7 568.468 1351.34C570.928 1348 573.318 1344.56 575.353 1340.94C579.429 1333.67 582.146 1325.67 581.597 1316.38C597.582 1311.44 594.27 1333.67 583.994 1356.11C601.255 1333.39 586.674 1323.28 597.142 1303.42L610.631 1333.98C604.974 1317.86 610.797 1308.79 619.755 1302.84C628.788 1296.94 640.859 1294.08 647.621 1290.03C642.791 1285.72 619.616 1287.87 634.688 1262.04C643.49 1252.18 646.222 1261.03 650.835 1260.06C648.412 1257.86 645.853 1253.02 645.005 1246.51C644.201 1240.03 645.099 1231.87 649.471 1223.01C658.755 1223.89 654.684 1240.64 661.864 1245.9C668.412 1232.6 672.66 1221.15 683.996 1215.09C690.103 1188.58 672.276 1210.66 671.676 1192.05C684.169 1175.86 691.181 1178.61 697.983 1184.85C704.782 1191.09 711.392 1200.79 722.959 1198.75C722.025 1206.83 720.253 1215.05 718.379 1223.25C716.475 1231.42 714.247 1239.47 712.079 1247.06C707.771 1262.23 703.574 1275.46 702.935 1284.18C709.786 1266.15 716.883 1248.22 723.865 1230.19C727.512 1234.15 735.841 1227.62 742.737 1224.17C749.589 1220.69 754.757 1220.14 751.73 1235.68C769.658 1213.03 784.253 1185.27 797.603 1157.02C800.898 1149.94 804.067 1142.79 807.127 1135.67C810.19 1128.54 813.295 1121.51 816.219 1114.51C822.132 1100.54 827.553 1086.82 832.889 1074.06C825.84 1078.86 819.014 1086.44 814.358 1081.76C818.984 1067.98 823.8 1063.5 828.423 1062.22C833.073 1060.97 837.672 1062.98 842.302 1062.4C847.24 1040.89 831.18 1033.77 826.925 1015.93C844.64 1001.26 852.534 991.598 860.581 982.958C864.627 978.665 868.691 974.625 874.171 970.465C879.675 966.318 886.525 962.025 895.986 957.159L880.109 949.625C893.136 942.426 894.628 934.466 895.885 925.986C897.138 917.519 898.301 908.64 910.385 899.68C914.371 900.453 912.073 911.933 910.657 921.386C919.752 897.4 935.62 910.346 943.526 886.387L948.953 913.226C951.486 909.12 954.046 904.36 956.606 899.8C959.179 895.24 961.806 890.947 964.326 887.667C969.379 881.147 974.152 878.854 978.206 887.64C978.832 877.894 981.805 867.801 986.139 857.494C990.525 847.228 996.378 836.828 1002.54 826.322C1005.67 821.095 1008.82 815.815 1011.96 810.549C1015.16 805.309 1018.36 800.096 1021.39 794.883C1027.46 784.456 1032.9 774.056 1036.78 763.817L1047.31 774.976C1046.36 760.83 1058.51 744.857 1070 728.911C1081.71 713.098 1092.83 697.338 1089.87 683.099L1096.7 684.312L1107.44 637.486C1121.14 623.113 1134.76 642.5 1130.82 637.326C1136.76 628.26 1142.48 619.754 1148.08 611.834C1153.72 603.941 1159.32 596.687 1164.85 590.021C1170.41 583.368 1175.88 577.261 1181.57 571.901C1187.25 566.542 1193.01 561.808 1198.95 557.728C1193.43 548.569 1196.88 534.316 1204.67 518.863C1208.53 511.103 1213.43 503.01 1218.71 495.023C1224.07 487.104 1229.83 479.277 1235.32 472.024C1266.56 441.185 1297.28 408.972 1327.65 376.12C1358.02 343.28 1388.04 309.801 1417.67 276.335C1447.33 242.71 1476.73 209.364 1505.47 176.751C1519.87 160.365 1534.27 144.272 1548.46 128.326C1562.71 112.473 1576.82 96.8334 1590.82 81.5804C1600.06 73.5139 1607.71 59.8075 1615.62 44.8212C1619.56 37.3414 1623.56 29.5015 1627.82 21.8884C1629.98 18.0885 1632.15 14.3153 1634.47 10.6887C1635.62 8.8754 1636.79 7.0756 1638.02 5.31564C1638.63 4.43567 1639.23 3.58241 1639.88 2.70243C1640.54 1.83578 1641.12 1.00903 1641.94 0.062389C1639.5 1.40902 1637.58 2.50238 1635.67 3.64902C1633.76 4.78232 1632.06 5.88901 1630.43 6.96899C1627.18 9.1156 1624.44 11.1954 1621.96 13.2087C1617.07 17.2486 1613.39 21.0618 1609.88 25.0217C1602.84 32.9015 1596.35 41.248 1581.82 53.0077C1556.72 66.6607 1535.4 57.3142 1508.37 63.4207L1528.87 68.3406C1518.81 86.0069 1512.38 88.5403 1506.98 90.8336C1501.61 93.1268 1497.13 95.0335 1491.61 111.5L1474.29 90.0336C1475.62 107.646 1448.1 116.859 1435.11 119.086L1440.7 139.846C1428.3 144.112 1418.5 148.192 1409.66 150.245C1400.8 152.299 1392.84 152.272 1384.24 148.579L1397.93 159.605C1394.41 159.178 1388.52 163.072 1381.69 168.485C1378.26 171.205 1374.6 174.285 1370.89 177.431C1367.21 180.591 1363.46 183.791 1359.82 186.684C1345.22 198.191 1332.49 205.004 1332.29 184.271C1330.05 192.058 1331.82 202.964 1319.49 212.377L1305.54 201.724C1299.25 211.204 1292.4 220.977 1285.64 228.057C1278.88 235.137 1272.34 239.67 1266.59 238.55C1272.01 227.003 1269.37 218.724 1266.75 210.537C1232.56 243.39 1239.53 256.963 1247.75 269.776C1251.85 276.189 1256.31 282.469 1256.24 290.935C1256.21 295.175 1255.07 299.962 1252.17 305.588C1249.32 311.241 1244.77 317.774 1237.89 325.454L1230.28 317.068C1228.44 324.921 1226.57 332.707 1224.81 340.574L1199.49 347.2C1200.53 353.2 1200.08 358.987 1198.41 364.627C1196.79 370.293 1194 375.84 1190.33 381.293C1186.67 386.746 1182.15 392.119 1177.08 397.466C1172 402.799 1166.51 408.212 1160.73 413.612C1154.95 418.985 1149.04 424.478 1143.16 429.945C1137.36 435.505 1131.7 441.145 1126.48 446.905C1121.27 452.664 1116.47 458.518 1112.52 464.571C1108.6 470.651 1105.46 476.877 1103.43 483.277C1098.42 491.823 1087.28 497.29 1074.91 504.65C1068.7 508.316 1062.11 512.41 1055.72 517.489C1052.52 520.023 1049.38 522.823 1046.36 525.929C1043.36 529.049 1040.52 532.516 1037.86 536.356L1052.94 545.342C1044.82 548.435 1033.82 555.782 1021.1 565.062C1008.48 574.421 994.245 585.768 979.406 596.661C964.739 607.66 949.513 618.26 934.847 626.033C920.323 633.9 906.339 638.94 894.008 638.673C887.842 669.632 898.742 638.42 909.438 647.113C907.121 654.046 904.721 659.899 902.241 664.872C899.788 669.872 897.29 674.019 894.689 677.459C889.498 684.352 883.984 688.512 878.225 691.485C872.467 694.472 866.466 696.272 860.307 698.445C854.159 700.632 847.934 703.232 841.617 707.738C828.947 740.857 862.12 690.058 862.192 712.751C841.737 730.431 839.924 742.217 837.58 755.404C835.304 768.657 832.251 783.109 809.379 806.656C803.546 806.602 804.445 802.176 806.601 796.603C808.806 791.083 812.298 784.429 811.508 779.856C810.136 785.816 808 792.003 805.378 798.442C802.771 804.909 799.587 811.576 795.957 818.429C788.704 832.122 779.573 846.428 770.028 861.308C750.671 890.88 728.813 922.186 712.54 951.905C706.188 959.358 699.63 967.372 692.898 975.825C689.558 980.078 686.148 984.411 682.674 988.838C679.306 993.318 675.879 997.877 672.4 1002.52C665.483 1011.82 658.427 1021.44 651.263 1031.26C647.655 1036.17 644.109 1041.17 640.559 1046.21C636.997 1051.26 633.412 1056.33 629.81 1061.44C615.381 1081.86 600.715 1102.63 586.363 1122.95C579.052 1133.09 571.821 1143.1 564.74 1152.9C557.601 1162.7 550.462 1172.21 543.343 1181.33L548.116 1185.77C540.009 1192.17 533.769 1199.81 528.345 1208.11C522.936 1216.42 518.426 1225.42 514.077 1234.72C511.936 1239.4 509.775 1244.11 507.591 1248.87C505.468 1253.67 503.292 1258.48 500.968 1263.28C496.322 1272.88 491.088 1282.42 484.506 1291.5L502.467 1276.31" fill="rgb(160, 22, 22)"/>
</svg>
