<svg xmlns="http://www.w3.org/2000/svg" xml:space="preserve" width="2666.667" height="2666.667"><path d="M20000 0H0v20000h20000V0" style="fill:#fff;fill-opacity:1;fill-rule:nonzero;stroke:none" transform="matrix(.13333 0 0 -.13333 0 2666.667)"/><path d="M15549.5 16628.9c-201.9-265.5-396.2-521.4-591.3-776.7-14.9-19.5-52.4-39.3-49.5-52.1 51.2-222.5-102.7-342.5-241.3-456.3-134.3-110.3-153-317.1-357.6-375.3-90.6-25.8-163-144.1-225.9-232.9-141.4-199.4-242.7-436-413.5-603.3-232.4-227.8-281.8-504.9-331.8-794.7-29.5-170.9-82.8-191.5-260.6-109.5-20.3 9.4-48.8 1.3-71 1.3-242.1-559.6-282.8-1157.7-346.8-1736.5-121-76.8-240.1-147.6-353-227.3-36.1-25.5-84.6-81-77.8-111.8 35.3-158.7-80.9-238.2-148.1-350.9-100.9-169.5-187.4-352.4-157.4-566.7 9.1-65.4-33.7-136.5-34.5-205.2-.8-59.2 34.1-118.7 34.7-178.2.4-42.4-25.3-87.7-47.4-127.3-67.6-120.8-167.1-231.7-202.3-360.7-51.4-188.1-173-326.6-270.2-482.6-125.1-200.8-232.2-396-228.2-651.6 3.1-193.1-108.4-388.5-103-581 9.4-334.5-271.4-571.2-263.4-898.1.9-38.6-43.5-80.2-71.3-117.2-63-83.6-117.9-178-196-244.5-103.3-88 118.1-191.8-26.4-263.6 23.9-111.7-18.1-167.3-130-206-46-15.9-77.5-113.3-89.2-178.4-15.1-83.9-6.1-172.6-3-259.1 3.5-99.7-15.9-177.3-89-262.5-168.6-196.6-183.9-465.8-278.1-699.1-51.36-127.1-94.53-262.7-85.49-412.9 6.71-111.6-25.25-234.9-72.91-337.8-53.31-115-173.06-203.7-209.56-320.8-34.42-110.4 5.12-240.2-116.53-326.2-29.31-20.7-38.85-85-38.7-129.2.78-226.9-83.36-433-133.73-648.1-50.03-213.6-74.89-435.4-141.97-648.5-27.67-87.9-29.79-183.9-49.7-317.6-54.19 91.2-115.6 147.5-117.57 205.8-10 296.6-14.84 594.1-.54 890.4 7.81 161.6 27.23 335.7 96.11 477.6 71.18 146.7 26.32 285.7 48.4 425.9-155.42 90.9-34.52 183.7 1.56 271.9 28.33 69.2 31.87 118.9 7.28 201.5-70.04 235.2 79.17 429.1 192.17 618.4 42.99 72 112.81 121.3 97.17 221-68.35 435.6 150.22 796.8 320.95 1165.2 203.74 439.6 403.66 880.8 340.76 1377.5-34.2 270.7 112 477.3 188.7 705 65.2 193.5 121.5 377.6 116.2 583-7 272 167.8 826.7 258.7 1152.6 115.5 414 350 770.9 490 1171.9 89.8 257.1 255.4 487.3 383.7 731.4 47.8 90.9 96.7 183.7 126.5 281.3 72.3 236.8 161.6 463.3 347.6 634.9 108.3 100 181 211 211 359.1 66.7 329.3 294.3 572.4 467.6 845.5 185.7 292.6 451.9 507.8 684.5 755.3 50.1 53.2 149.7 119 140.4 159.2-56.3 245.1 170.8 285 278.5 401.3 228 246.2 416.4 523.7 633.4 775.4 310.2 359.6 636.2 721.5 1125.8 854.6 8 2.2 19.9-10 32.6-16.8M3035.85 5495.5c-80.65 415.6 15.75 785.5 184.32 1144.5 60.53 128.9 106.27 259.7 92.26 408.7-9.98 106.1-24.95 215.6 87.77 300.5 43.6 32.8 60.14 129.8 54.53 194.6-18.22 210.2 62.04 373.6 212.96 507.4 127.26 112.8 263.91 238.3 300.18 394.2 40.37 173.5 287.8 208.7 241.77 427-8.74 41.5 85.82 111.5 140.99 158.6 297.94 254.6 396.88 600.4 442.07 968.1 10.44 85 18.9 155.2 73.04 231.8 133.79 189.2 194.37 432.1 380.17 581.5 135.58 109.1-9.07 300.3 144.02 388.7 24.21 451.5 294.6 793.5 505.33 1165.6 191.88 338.8 464.89 616.5 671.68 944.4 61.06 96.8 59.5 200.2 118.83 287.8 112.51 166.3 237.52 333.7 420.46 406.4 153.38 60.9 205.15 179.8 279.67 293.7 17.98 27.5 7.71 82.1 29.33 97.2 268.6 187.6 355.94 549.4 670.83 694.4 40.93 18.8 58.38 90.9 84.34 139.6 66.48 124.7 130.54 242.1 274.61 307.9 89.73 41 137.85 151.4 137.2 257.1-.94 154.5 38.08 241.6 217.67 265.6 118.84 16 233.2 95.7 326.83 195.1 197.02 209 393.44 419.8 664.12 544.7 62.01 28.6 94.12 123.2 138.53 188.5 83.14 122.2 165.64 234.3 334.64 255.8 142.4 18.1 253 109.6 358.7 210 183.5 174.4 359.5 372.3 576.4 491.9 278.5 153.7 552.6 330.5 869.3 409.1 96.7 23.9 178.3 135.2 281 61.3-276-267.3-527.4-567.3-834.8-789.9-225.4-163.4-446.8-338.3-685.4-487.3-262.4-163.8-512.4-349.3-727.1-575.7-21.2-22.4-11.6-75.9-33.6-95.5-135.63-120.8-369.93-105.5-395.46-387.1-14.76-162.7-192.16-311.7-299.51-464.7-44.03-62.7-101.78-99.4-187.47-86.1-127.85 19.9-188.54-44.9-234.47-166-76.88-202.9-179.03-396.3-273.6-592.2-39.83-82.5 26.49-238-152.36-227.7-29.95-99.1-70.6-196.5-87.15-297.8-21.32-130.3-47.58-236-194.66-291.2-60.62-22.7-85.1-51.4-138.1 4.1-12.56 13.2-111.49-28.3-110.48-34.1 32.86-187.8-128.16-254.4-224.34-354.8-157.41-164.3-273.25-349.3-339.23-566.2-13.43-44.1-47.75-101.4-32.05-131.7 96.96-186.8-25.8-290.3-133.97-407-256.29-276.4-508.55-556.5-762.4-835.2-24.53-26.9-70.2-54.2-69.99-81 2.25-287.1-270.12-455.9-311.18-729.7-9.69-64.6-3.73-106.6-.83-163.5 4.43-87.3-22.37-216.3-137.75-247-129.75-34.6-172.97-149.8-185.38-236.5-27.09-189.2-157.23-289.3-270.56-410.5-64.1-68.5-130.63-123.5-148.89-238-13.73-86.1-116.78-194.6-203.66-224.5-159.72-54.8-167.39-160.1-155.27-285.5 18.65-193.2-50.81-321.5-236.93-396-56.22-22.5-101.51-92.4-134.03-150.6-162.71-291.1-321.73-584.3-477.08-879.4-47.74-90.7-75.03-192-120.08-284.3-70.46-144.5-117.91-318.1-229.2-420.8-204.15-188.2-278.86-426.6-366.04-670-92.83-259.1-186.98-521.2-420.53-718.3M16993.1 15933.1c-65.6-107.9-118.9-226.2-200.1-320.6-86.7-100.8-147.1-207.6-187.5-332.3-20.9-64.4-49.6-142.4-100.2-178.4-234.6-166.7-325.8-438.8-480.7-660.1-83.4-119.1-282.9-135.5-273-322.6-167.2-112.2-210.4-308.6-314-463.9-31.6-47.4-40.4-119.1-81.8-149.3-147.6-107.7-165.4-249.2-165.7-418.4-.2-136.6-54.4-273-90.8-437.3-67.6-7-160.1-16.5-250.3-25.8-34-77.3-83.1-147.7-95.9-224.2-82.6-495.3-190.6-988.7-144.4-1513-91.8-39.5-186.8-74-275.1-121.1-41.2-22-96.7-67-98.7-104.2-13.3-240.1-253.2-398.6-227.4-649.6-128.6-133.5-54.2-300.3-74.3-451.7 148.9-90.8 50.8-190.3-2.6-270.7-132.3-199.2-150.3-433.5-220.2-651.6-31.5-98.2-37-218.9-99-290.9-224.6-260.9-283.6-561.9-273.4-891.1 13.4-430-131.9-822.6-260.2-1226.6-107.8-339.5-316.7-636.9-365.7-1003.8-21.8-163.4-78.2-343.3-101.5-506.9-39.9-280.1-171.9-538-173.1-822.9-104.4-70.3-62.3-177.8-62.6-270.2-.8-287.9-65.8-548.3-217.5-802.5-133.3-223.2-288-446.5-326.6-718-1.6-11.2-61.8-14-132.1-28.2 42.5 175.6-36.1 324.2 66.7 500.3 70.1 119.9 1.9 314.8 16.4 474.3 17.3 188.2-72.8 389.1 67.8 566.1 23.3 29.3 20.7 112.2-4.1 141.1-155.9 181.8-48.3 346.8 54.7 477.2 73.1 92.5 92.6 186.4 123.5 285.8 33.9 109.5 74.9 217.2 103.1 328.1 28.3 111.8 136.6 199.1 99 331.2-6 21.1-4.2 60.2 8.5 68.4 214 137.1 123.8 351.9 137 537.8 9.6 135.4.4 272 2.2 408.1 2 154 5.5 301.4 67.9 454.1 116.6 284.9 190.2 587.9 152.7 900.6-46.8 390.1 98.4 749.8 167.4 1120.4 39.3 211.6 138.6 411.7 205.1 618.8 66.5 207.2 194.4 391.8 223.7 612.4 232.8 216.1 170.1 581.1 402.3 799.6 29.1 27.4 47 87.9 40.7 128.7-49.2 322.7 161.7 532.2 332.6 752.9 70.3 90.8 117.5 167.1 121.6 287.2 4.3 124.6 29 261.5 88.5 368.8 179.4 323.3 373.7 639 574.6 949.6 127.7 197.3 267.8 388.8 421.8 566 70.7 81.3 67.6 178.7 109.1 252.3 115 203.5 256.6 397.1 414.5 570.2 258.9 283.7 498.2 581.5 735.5 882.9 149.1 189.4 339 346.6 510.6 518.2 17-15.1 34-30.1 51-45.2M6768.67 9047.9c-11.67-115.2-42.62-194-78.26-268.8-34.71-75.3-73.88-146.9-102.54-246.5L6415 8488.8c-28.11-109.7-12.45-144.1 9.64-173.3 21.97-29 50.06-52.6 48.35-140.4-81.56-73.1-149.93-214.5-201.82-348.5-50.95-134.5-87.21-260.9-109.57-303.2-84.86-35.1-45.98 110.8-67.79 156.2-32.01-128.2-16.2-201.1-8.62-278.8 8.21-77.9 8.82-160.8-53.87-308.7l-36.23 9.6c-63.1-390.9-191.48-806.7-327.97-1230.5-33.12-106.2-66.43-213-99.76-319.9-33.27-106.9-66.8-213.6-96.29-321.1-30.17-107.2-59.09-214.2-85.77-320.6-6.54-26.6-13.06-53.2-19.57-79.7-6.2-26.5-11.86-53.2-17.56-79.7-11.3-53.1-21.93-106-31.75-158.7 25.29 52.1 47.72 29.1 80.82 41.2-30.63-107.5-61.84-217.1-93.4-327.9-31.29-110.8-60.83-223.5-90.88-336.2-14.68-56.5-29.38-113.1-44.08-169.6-7.14-28.3-14.58-56.6-21.27-85-6.56-28.5-13.11-56.9-19.65-85.3-25.83-113.7-50.08-227.2-71.82-339.9-22.49-112.4-39.15-224.9-53.36-335.5-14.06-110.7-24.7-219.7-30.96-326.3-10.17-214-1.54-418.9 30.97-608 45.72 235 170.95 534.5 280.75 838.2 27 76.1 52.18 152.7 74.65 229 23.4 75.9 43.58 151.5 58.87 226.1 15.28 74.6 25.66 148.1 29.48 219.8 1.94 35.9 2.1 71.4.66 106.2-1.09 34.7-4.05 68.9-9.07 102.5 74 71.2 98.73 183.3 124.33 281.7 12.79 49.1 25.79 94.7 45.21 129.7 19.75 35 46.23 59.2 84.89 66 70.13 159.4 113.91 300.4 143.58 432.5 31.45 131.4 48.91 253.9 64.13 376.6 7.73 61.4 14.52 122.9 23.09 185.3 9.01 62.2 19.06 125.5 31.67 191.1 12.61 65.6 27.79 133.4 47.07 204.6 9.64 35.5 20.31 71.9 32.19 109.2 12.35 37.2 26.1 75.2 41.18 114.3 58.26 80.5 103.72 12.6 173.93 14.9l-33.23-129.1-16.54-64.5-15.64-64.8-62.43-259 164.14 282c8.01-151.9-152.5-453.5-50.68-531.8 12.08 240 107.58 523.9 205.7 798.6 24.07 68.9 47.79 137.5 69.73 205 22.66 67.3 44 133.3 61.84 197.7 36.03 128.7 58.06 251 57.53 360.6-51.4-81.2-89.89-180.6-128.71-284.5-38.21-104.1-77.41-212.5-122.76-315.1-76.55-75.6-162.45-206.3-220.36-173 27.52 335.1 118.32 618.1 225.73 895.9 55.08 138.4 114.17 275.7 172.4 418.1 60.33 141.5 119.89 287.9 174.01 445.9 55.72 157.7 161.49 358.1 231.22 355.5-25.42-108.6 57.68-56.7 48.41-151 24.31 118-26.42 148.5-62.44 186.5-35.91 37.9-57.91 84 28.35 231.9l185.28-136.9c-78.57 112.2-23.79 201.6 47.73 297.1 17.88 23.9 36.82 48.2 55.01 73.4 18.45 25 36.38 50.8 51.64 78 30.57 54.5 50.95 114.5 46.83 184.2 119.89 37 95.05-129.7 17.98-298 129.46 170.4 20.1 246.2 98.61 395.2l101.17-229.2c-42.43 120.9 1.25 188.9 68.43 233.5 67.75 44.3 158.29 65.7 209 96.1-36.22 32.3-210.04 16.2-97 209.9 66.02 74 86.51 7.6 121.11 14.9-18.17 16.5-37.37 52.8-43.73 101.6-6.03 48.6.71 109.8 33.5 176.3 69.63-6.6 39.1-132.3 92.95-171.7 49.11 99.7 80.97 185.6 165.99 231.1 45.81 198.8-87.9 33.2-92.4 172.8 93.7 121.4 146.29 100.8 197.31 54 50.99-46.8 100.57-119.6 187.32-104.3-7-60.6-20.29-122.2-34.35-183.7-14.28-61.3-30.99-121.7-47.25-178.6-32.31-113.8-63.79-213-68.58-278.4 51.38 135.2 104.61 269.7 156.98 404.9 27.35-29.7 89.82 19.3 141.54 45.2 51.39 26.1 90.15 30.2 67.45-86.4 134.46 169.9 243.93 378.1 344.06 590 24.71 53.1 48.48 106.7 71.43 160.1 22.97 53.5 46.26 106.2 68.19 158.7 44.35 104.8 85.01 207.7 125.03 303.4-52.87-36-104.07-92.8-138.99-57.7 34.7 103.3 70.82 136.9 105.49 146.5 34.88 9.4 69.37-5.7 104.1-1.3 37.03 161.3-83.42 214.7-115.33 348.5 132.86 110 192.07 182.5 252.42 247.3 30.35 32.2 60.83 62.5 101.93 93.7 41.28 31.1 92.66 63.3 163.62 99.8l-119.08 56.5c97.7 54 108.89 113.7 118.32 177.3 9.4 63.5 18.12 130.1 108.75 197.3 29.9-5.8 12.66-91.9 2.04-162.8 68.22 179.9 187.23 82.8 246.53 262.5l40.7-201.3c19 30.8 38.2 66.5 57.4 100.7 19.3 34.2 39 66.4 57.9 91 37.9 48.9 73.7 66.1 104.1.2 4.7 73.1 27 148.8 59.5 226.1 32.9 77 76.8 155 123 233.8 23.5 39.2 47.1 78.8 70.7 118.3 24 39.3 48 78.4 70.7 117.5 45.5 78.2 86.3 156.2 115.4 233l79-83.7c-7.1 106.1 84 225.9 170.2 345.5 87.8 118.6 171.2 236.8 149 343.6l51.2-9.1 80.6 351.2c102.7 107.8 204.9-37.6 175.3 1.2 44.6 68 87.5 131.8 129.5 191.2 42.3 59.2 84.3 113.6 125.8 163.6 41.7 49.9 82.7 95.7 125.4 135.9 42.6 40.2 85.8 75.7 130.3 106.3-41.4 68.7-15.5 175.6 42.9 291.5 29 58.2 65.7 118.9 105.3 178.8 40.2 59.4 83.4 118.1 124.6 172.5 234.3 231.3 464.7 472.9 692.5 719.3 227.8 246.3 452.9 497.4 675.2 748.4 222.4 252.2 442.9 502.3 658.5 746.9 108 122.9 216 243.6 322.4 363.2 106.9 118.9 212.7 236.2 317.7 350.6 69.3 60.5 126.7 163.3 186 275.7 29.6 56.1 59.6 114.9 91.5 172 16.2 28.5 32.5 56.8 49.9 84 8.6 13.6 17.4 27.1 26.6 40.3 4.6 6.6 9.1 13 14 19.6 4.9 6.5 9.3 12.7 15.4 19.8-18.3-10.1-32.7-18.3-47-26.9-14.3-8.5-27.1-16.8-39.3-24.9-24.4-16.1-44.9-31.7-63.5-46.8-36.7-30.3-64.3-58.9-90.6-88.6-52.8-59.1-101.5-121.7-210.5-209.9-188.2-102.4-348.1-32.3-550.9-78.1l153.8-36.9c-75.5-132.5-123.7-151.5-164.2-168.7-40.3-17.2-73.9-31.5-115.3-155l-129.9 161c10-132.1-196.4-201.2-293.8-217.9l41.9-155.7c-93-32-166.5-62.6-232.8-78-66.5-15.4-126.2-15.2-190.7 12.5l102.7-82.7c-26.4 3.2-70.6-26-121.8-66.6-25.7-20.4-53.2-43.5-81-67.1-27.6-23.7-55.7-47.7-83-69.4-109.5-86.3-205-137.4-206.5 18.1-16.8-58.4-3.5-140.2-96-210.8l-104.6 79.9c-47.2-71.1-98.6-144.4-149.3-197.5-50.7-53.1-99.7-87.1-142.9-78.7 40.7 86.6 20.9 148.7 1.2 210.1-256.4-246.4-204.1-348.2-142.5-444.3 30.8-48.1 64.2-95.2 63.7-158.7-.2-31.8-8.8-67.7-30.5-109.9-21.4-42.4-55.5-91.4-107.1-149l-57.1 62.9c-13.8-58.9-27.8-117.3-41-176.3l-189.9-49.7c7.8-45 4.4-88.4-8.1-130.7-12.2-42.5-33.1-84.1-60.6-125-27.5-40.9-61.4-81.2-99.4-121.3-38.1-40-79.3-80.6-122.6-121.1-43.4-40.3-87.7-81.5-131.8-122.5-43.5-41.7-86-84-125.1-127.2-39.1-43.2-75.1-87.1-104.7-132.5-29.4-45.6-53-92.3-68.2-140.3-37.6-64.1-121.1-105.1-213.9-160.3-46.6-27.5-96-58.2-143.9-96.3-24-19-47.6-40-70.2-63.3-22.5-23.4-43.8-49.4-63.8-78.2l113.1-67.4c-60.9-23.2-143.4-78.3-238.8-147.9-94.6-70.2-201.4-155.3-312.7-237-110-82.5-224.2-162-334.2-220.3-108.93-59-213.81-96.8-306.3-94.8-46.24-232.2 35.51 1.9 115.73-63.3-17.38-52-35.38-95.9-53.98-133.2-18.4-37.5-37.13-68.6-56.64-94.4-38.93-51.7-80.29-82.9-123.48-105.2-43.19-22.4-88.2-35.9-134.39-52.2-46.11-16.4-92.8-35.9-140.18-69.7-95.03-248.4 153.78 132.6 154.32-37.6-153.42-132.6-167.02-221-184.6-319.9-17.07-99.4-39.97-207.8-211.51-384.4-43.75.4-37.01 33.6-20.84 75.4 16.54 41.4 42.73 91.3 36.81 125.6-10.29-44.7-26.31-91.1-45.98-139.4-19.55-48.5-43.43-98.5-70.66-149.9-54.4-102.7-122.88-210-194.47-321.6-145.18-221.8-309.12-456.6-431.17-679.5-47.64-55.9-96.83-116-147.32-179.4-25.05-31.9-50.63-64.4-76.68-97.6-25.26-33.6-50.97-67.8-77.06-102.6-51.88-69.8-104.8-141.9-158.53-215.6-27.06-36.8-53.66-74.3-80.28-112.1-26.72-37.9-53.61-75.9-80.62-114.2-108.22-153.2-218.22-309-325.86-461.4-54.84-76-109.07-151.1-162.18-224.6-53.54-73.5-107.09-144.8-160.48-213.2l35.8-33.3c-60.81-48-107.61-105.3-148.29-167.6-40.57-62.3-74.39-129.8-107.01-199.6-16.06-35.1-32.27-70.4-48.65-106.1-15.92-36-32.24-72.1-49.67-108.1-34.85-72-74.1-143.5-123.47-211.6l134.71 113.9" style="fill:#231f20;fill-opacity:1;fill-rule:nonzero;stroke:none" transform="matrix(.13333 0 0 -.13333 0 2666.667)"/></svg>