<svg width="400" height="387" viewBox="0 0 400 387" fill="none" xmlns="http://www.w3.org/2000/svg">
<path d="M297.402 18.4717L302.598 21.4717L274.238 70.5929L341.712 52.5133L343.265 58.3089L269.995 77.9414L205.196 190.177H334.931L388.431 136.677L392.674 140.919L343.417 190.177H400V196.177L343.28 196.177L392.674 245.571L388.431 249.814L334.794 196.177L205.196 196.177L270.064 308.531L343.146 328.113L341.593 333.909L274.306 315.879L302.598 364.882L297.402 367.882L269.042 318.76L250.962 386.235L245.167 384.682L264.799 311.412L200 199.177L135.064 311.65L154.646 384.732L148.851 386.285L130.821 318.998L102.598 367.882L97.402 364.882L125.694 315.879L58.2195 333.959L56.6666 328.163L129.936 308.531L194.804 196.177L64.9315 196.177L11.4315 249.677L7.18882 245.434L56.4462 196.177H7.92742e-06L0 190.177H56.5833L7.18881 140.782L11.4315 136.54L65.0685 190.177H194.804L129.868 77.7039L56.7852 58.1215L58.3382 52.326L125.625 70.3554L97.4019 21.4716L102.598 18.4716L130.89 67.4742L148.969 3.05176e-05L154.765 1.55295L135.132 74.8226L200 187.177L264.868 74.8227L245.285 1.74032L251.081 0.187411L269.11 67.4742L297.402 18.4717Z" fill="black"/>
<path fill-rule="evenodd" clip-rule="evenodd" d="M282.24 159.86L296.279 76.147L247.184 133.672L200.144 98.5323L152.564 134.076L103.126 76.1504L117.264 160.447L88.2019 182.157L102.027 206.376L99.9988 203.592L72.8313 240.002L133.506 261.525L190.717 361.751H209.572L266.845 261.415L327.21 240.002L300.042 203.592L299.159 204.805L312.087 182.157L282.24 159.86ZM126.804 219.187L174.486 236.074L139.463 199.576L126.804 219.187ZM226.004 236.074L273.686 219.187L261.027 199.576L226.004 236.074Z" fill="black"/>
</svg>
